<svg xmlns="http://www.w3.org/2000/svg" viewBox="0 0 500 140"><g fill="#EC407A"><path d="M36.6 101.4h.2l18.6-63.6h1.9l.3 67.5h-1.7l-.3-61.4h-.2l-18 61.5h-1.3L16.9 42.7h-.2l.3 62.7h-1.7L15 37.9h2.3l19.3 63.5zM73 105.2h-1.7L71 37.7h1.7l.3 67.5zM86.7 105.1l-.3-67.5 13.5-.1c5.2 0 9.6 2.7 13.3 8.3 3.7 5.5 5.5 12.6 5.6 21.3v8.3c0 8.7-1.7 15.8-5.3 21.3-3.6 5.6-8 8.4-13.2 8.4H86.7zm1.3-65l.3 62.5 11.8-.1c4.7 0 8.7-2.6 12-7.8 3.3-5.1 4.9-11.6 4.9-19.5v-8.4c0-7.7-1.7-14.2-5.1-19.3-3.3-5.1-7.4-7.7-12.1-7.6l-11.8.2zM129.3 104.9l-.3-67.5 13.5-.1c5.2 0 9.6 2.7 13.3 8.3 3.7 5.5 5.5 12.6 5.6 21.3v8.3c0 8.7-1.7 15.8-5.3 21.3-3.6 5.6-8 8.4-13.2 8.4h-13.6zm1.3-65l.3 62.5 11.8-.1c4.7 0 8.7-2.6 12-7.8 3.3-5.2 4.9-11.6 4.9-19.5v-8.4c0-7.7-1.7-14.2-5.1-19.3-3.3-5.1-7.4-7.7-12.1-7.6l-11.8.2zM173.6 102.2l24.5-.1v2.5l-26.2.1-.3-67.5h1.7l.3 65zM230.4 70.4l-21.8.1.2 31.4 25-.1v2.5l-26.6.1-.5-67.4 26.6-.1v2.5l-25 .1.1 28.6 21.8-.1.2 2.4zM249.1 88.5l2 10.9h.2l1.9-11 10.4-51.8h1.9l10.9 51.7 2 10.9h.2l2-11 9.1-51.8h1.8L279.7 104h-1.9l-11.5-56.3-1.5-6.7h-.2l-1.4 6.7-11 56.4h-1.9l-12.6-67.5h1.9l9.5 51.9zM322.3 83.7l-22.1.1-5 20.2h-1.8L310 36.4h2.1l17.3 67.4h-1.8l-5.3-20.1zm-21.5-2.4l20.9-.1-9.7-37.7-.9-3.9h-.2l-.8 3.9-9.3 37.8zM338 72.1l.2 31.7h-1.7l-.3-67.5 14.7-.1c4.8 0 8.5 1.5 11 4.6 2.6 3.1 3.9 7.5 3.9 13.5 0 3.8-.8 7.3-2.4 10.4-1.6 3.1-3.8 5.1-6.6 6.1 3.3.8 5.6 2.6 7 5.3 1.4 2.7 2.1 6.2 2.2 10.4v6.4c0 2.1.2 4 .5 5.7s.9 3 1.7 4.1v1.2h-1.6c-.8-1.3-1.3-2.8-1.7-4.7s-.6-4-.6-6.3v-6.2c0-4.6-1.1-8.1-3.2-10.7-2.1-2.6-5.1-3.8-9-3.8l-14.1-.1zm0-2.5l12.8-.1c4.6 0 8-1.5 10.2-4.4 2.2-2.9 3.2-6.5 3.2-10.9 0-5-1.2-8.9-3.4-11.6-2.2-2.7-5.5-4-9.9-4l-13.1.1.2 30.9zM402.4 69.5l-21.8.1.2 31.4 25-.1v2.5l-26.6.1-.3-67.5 26.6-.1v2.5l-25 .1.1 28.6 21.8-.1v2.5zM429.3 75.6l-18.4.1v-2.5l18.4-.1v2.5zM442.2 103.3h-1.7l-.3-67.5h1.7l.3 67.5zM487.9 74.3c0 9.1-1.4 16.4-4.4 21.7-3 5.3-7.2 8-12.5 8.1-5.3 0-9.5-2.6-12.6-7.9-3.1-5.3-4.6-12.5-4.7-21.7l-.1-10.1c0-9.1 1.4-16.3 4.4-21.7 3-5.4 7.2-8.1 12.5-8.1s9.5 2.6 12.6 8c3.1 5.3 4.6 12.5 4.7 21.6l.1 10.1zm-1.8-10.2c0-8.3-1.4-14.9-4.1-19.7s-6.5-7.3-11.5-7.3c-4.9 0-8.7 2.5-11.3 7.4-2.6 4.9-3.9 11.5-3.9 19.8l.1 10.2c0 8.3 1.4 15 4.1 19.8 2.7 4.9 6.5 7.3 11.4 7.3s8.7-2.5 11.4-7.4c2.6-4.9 3.9-11.5 3.9-19.9l-.1-10.2z"/></g><path fill="#EE5186" d="M6 28.7l484-13.2L6 2.3zM492 111.3L8 124.5l484 13.2z"/></svg>